<?xml version="1.0" standalone="no"?>
<!DOCTYPE svg PUBLIC "-//W3C//DTD SVG 20010904//EN"
 "http://www.w3.org/TR/2001/REC-SVG-20010904/DTD/svg10.dtd">
<svg version="1.0" xmlns="http://www.w3.org/2000/svg"
 width="500.000000pt" height="500.000000pt" viewBox="0 0 500.000000 500.000000"
 preserveAspectRatio="xMidYMid meet">

<g transform="translate(0.000000,500.000000) scale(0.100000,-0.100000)"
fill="#3b3b41" stroke="none">
<path d="M3758 4529 c-143 -16 -250 -71 -369 -189 -152 -152 -206 -299 -196
-534 8 -184 17 -218 241 -859 90 -256 142 -454 167 -626 18 -122 20 -176 16
-340 -5 -218 -15 -270 -72 -388 -40 -81 -98 -139 -179 -177 -55 -26 -187 -58
-197 -47 -3 3 -11 58 -18 121 -25 236 -76 432 -156 595 -50 102 -152 245 -175
245 -17 0 -11 25 16 61 68 91 129 251 140 368 6 63 9 68 45 94 53 38 103 102
136 173 26 54 28 69 28 179 0 118 -1 121 -37 198 -69 143 -190 235 -326 245
l-67 4 -50 75 c-58 87 -192 220 -284 282 -86 59 -208 115 -311 143 -75 20
-107 23 -270 22 -153 0 -201 -4 -277 -21 -448 -105 -749 -434 -817 -895 -9
-58 -16 -116 -16 -130 0 -17 -10 -29 -35 -42 -53 -29 -113 -99 -148 -174 -30
-63 -32 -74 -31 -177 0 -124 11 -162 70 -252 67 -100 178 -169 309 -194 34 -6
55 -16 65 -32 32 -48 138 -150 195 -188 65 -43 201 -91 311 -110 86 -15 98
-24 43 -33 -100 -16 -191 -82 -237 -170 -38 -74 -43 -214 -12 -363 17 -85 69
-266 97 -339 2 -6 -29 -23 -70 -38 -130 -47 -258 -130 -308 -199 -23 -32 -29
-50 -29 -93 0 -98 59 -137 233 -155 57 -6 120 -19 142 -29 69 -32 162 -43 345
-43 211 1 300 16 418 75 101 49 130 72 177 144 l37 55 46 -48 c105 -109 207
-156 342 -156 166 0 325 73 390 179 20 32 25 34 75 34 29 0 104 9 167 19 497
86 776 381 860 911 20 132 17 547 -6 684 -33 204 -94 402 -211 691 -165 407
-198 526 -199 725 0 136 15 180 62 180 41 0 66 -22 118 -108 58 -95 127 -168
172 -183 19 -6 62 -11 97 -11 235 1 336 245 203 494 -90 169 -316 326 -494
343 -33 4 -68 8 -79 9 -11 2 -50 -1 -87 -5z m153 -149 c30 -5 92 -28 138 -51
153 -75 264 -214 277 -346 7 -78 -15 -123 -70 -141 -81 -26 -125 4 -209 144
-69 114 -149 163 -246 150 -158 -22 -220 -195 -175 -495 19 -132 61 -261 176
-550 181 -453 231 -656 244 -981 13 -305 -31 -563 -125 -745 -138 -267 -380
-404 -767 -435 -104 -9 -130 -14 -138 -28 -20 -39 -126 -131 -181 -158 -52
-25 -71 -29 -145 -29 -117 0 -164 26 -328 180 -54 50 -65 57 -73 43 -24 -43
-122 -156 -155 -178 -74 -49 -170 -19 -279 87 -95 93 -93 81 -31 224 171 395
254 524 360 559 144 47 335 -65 485 -285 30 -44 56 -82 57 -84 2 -2 30 14 64
34 42 26 60 42 56 52 -16 42 -120 177 -191 248 -127 127 -243 184 -392 193
-60 3 -96 0 -132 -12 -66 -21 -67 -21 -80 15 -18 53 -13 86 18 121 l29 33 190
3 189 4 -13 46 c-28 91 -6 191 50 227 71 47 185 19 257 -64 136 -154 235 -507
252 -891 l2 -55 96 1 c470 6 694 335 649 952 -20 278 -74 498 -229 931 -49
135 -107 303 -130 372 -115 356 -91 581 80 764 120 127 258 175 420 145z
m-1827 -379 c102 -27 173 -60 250 -116 119 -86 212 -190 290 -323 42 -72 52
-83 70 -77 12 3 48 9 81 12 86 7 154 -29 211 -114 68 -101 77 -210 25 -312
-23 -44 -97 -115 -146 -138 l-35 -17 0 -75 c0 -137 -36 -241 -127 -368 -56
-80 -89 -88 -44 -11 27 45 51 142 51 204 0 79 -30 161 -98 265 -33 52 -66 108
-72 124 -6 17 -15 93 -20 170 -11 176 -30 234 -103 308 -73 74 -133 101 -227
101 -103 0 -162 -28 -276 -134 -49 -45 -102 -88 -118 -97 -39 -20 -94 -19
-221 7 -200 41 -320 15 -419 -90 -71 -76 -90 -126 -91 -237 l0 -92 72 -143 73
-143 -3 -160 c-2 -155 -1 -162 25 -217 31 -67 95 -140 158 -180 40 -26 42 -28
15 -22 -144 33 -274 128 -358 260 l-26 41 -73 5 c-174 11 -296 147 -286 319 6
117 84 220 177 235 l38 6 6 122 c3 66 13 157 22 201 78 378 357 635 759 701
115 19 319 11 420 -15z m159 -482 c68 -19 131 -91 151 -174 4 -16 11 -91 16
-166 7 -125 10 -141 42 -210 19 -41 53 -100 76 -132 109 -156 92 -281 -60
-421 -200 -186 -649 -295 -914 -222 -72 19 -152 64 -180 101 -47 62 -57 102
-54 215 8 247 5 266 -82 411 -59 97 -63 108 -63 164 0 106 76 199 185 225 51
12 100 7 245 -24 159 -35 224 -14 365 118 64 59 106 91 143 105 60 23 78 25
130 10z m-309 -1606 c-17 -53 -10 -165 13 -208 l21 -40 -27 -40 c-15 -22 -51
-85 -80 -140 -98 -184 -145 -228 -217 -205 -52 17 -69 58 -67 155 2 108 39
222 104 319 59 89 121 143 192 167 68 24 71 24 61 -8z m-203 -1158 c30 -28 72
-62 94 -75 l40 -25 -30 -6 c-48 -11 -274 -9 -349 1 -128 19 -170 69 -105 124
38 32 134 82 204 106 l50 17 21 -46 c12 -25 45 -69 75 -96z"/>
<path d="M2752 3352 c-9 -6 -5 -28 18 -96 17 -48 33 -108 37 -132 3 -25 9 -47
14 -49 13 -9 78 77 85 113 15 78 -44 172 -108 172 -18 0 -39 -4 -46 -8z"/>
<path d="M854 2830 c-58 -23 -73 -118 -29 -183 27 -38 89 -77 125 -77 24 0 24
0 0 77 -11 35 -24 92 -31 128 -12 68 -18 74 -65 55z"/>
<path d="M2063 3265 c-57 -25 -82 -119 -48 -184 40 -77 131 -106 180 -57 99
99 -8 296 -132 241z"/>
<path d="M1444 3101 c-39 -17 -64 -60 -64 -112 0 -61 11 -88 50 -127 44 -45
104 -45 145 -2 39 40 47 128 16 177 -34 55 -100 83 -147 64z"/>
<path d="M1811 2902 c-68 -34 -67 -74 2 -101 45 -17 76 -9 111 26 20 20 26 35
24 57 -3 30 -5 31 -53 33 -32 2 -63 -4 -84 -15z"/>
<path d="M2120 2750 c-212 -26 -487 -121 -572 -198 -65 -59 -49 -104 51 -142
145 -56 379 -26 563 72 74 39 174 132 183 171 10 39 -1 72 -28 84 -36 17 -124
22 -197 13z"/>
</g>
</svg>
